<?xml version="1.0" encoding="UTF-8"?>
<svg id="Layer_1" data-name="Layer 1" xmlns="http://www.w3.org/2000/svg" viewBox="0 0 50 50">
  <defs>
    <style>
      .cls-1 {
        fill: #00d8ff;
      }
    </style>
  </defs>
  <circle class="cls-1" cx="25" cy="24.97" r="2.94"/>
  <path class="cls-1" d="m25,19.7c3.8,0,7.4.54,10.14,1.48,3.04,1.05,4.9,2.6,4.9,3.79,0,1.27-2.01,2.92-5.26,4-2.59.86-6.06,1.33-9.78,1.33-3.91,0-7.42-.46-9.98-1.33-1.6-.55-2.93-1.26-3.84-2.04-.82-.7-1.23-1.39-1.23-1.96,0-1.2,1.79-2.73,4.76-3.76,2.74-.96,6.44-1.51,10.28-1.51h0m0-1.41c-3.99,0-7.84.57-10.74,1.58-3.48,1.21-5.71,3.12-5.71,5.09s2.39,4.08,6.02,5.32c2.73.93,6.38,1.41,10.43,1.41s7.48-.49,10.22-1.4c3.77-1.25,6.23-3.27,6.23-5.34s-2.3-3.9-5.85-5.12c-2.9-1-6.66-1.56-10.6-1.56h0m-4.59,4.06c1.9-3.29,4.16-6.14,6.35-8.05,2.43-2.11,4.7-2.95,5.73-2.35,1.1.64,1.53,3.2.84,6.56-.55,2.67-1.88,5.91-3.74,9.14-1.95,3.39-4.1,6.2-6.14,7.98-1.28,1.12-2.56,1.91-3.68,2.31-1.01.36-1.82.37-2.31.09-1.04-.6-1.47-2.91-.88-6.01.54-2.85,1.91-6.33,3.83-9.66h0m-1.22-.7c-1.99,3.46-3.42,7.08-3.99,10.1-.69,3.62-.15,6.5,1.56,7.49,1.77,1.02,4.73-.03,7.62-2.55,2.17-1.9,4.41-4.82,6.43-8.33,1.93-3.34,3.31-6.72,3.9-9.56.8-3.89.28-7.03-1.51-8.06-1.72-.99-4.52.04-7.36,2.51-2.31,2.01-4.67,4.99-6.64,8.41h0m1.22,6c-1.9-3.28-3.25-6.67-3.8-9.52-.62-3.16-.21-5.54.83-6.14,1.1-.64,3.53.27,6.1,2.55,2.04,1.81,4.19,4.58,6.05,7.8,1.96,3.38,3.32,6.65,3.84,9.31.33,1.66.38,3.17.16,4.34-.2,1.06-.59,1.76-1.08,2.04-1.04.6-3.25-.18-5.65-2.24-2.2-1.89-4.53-4.82-6.45-8.14h0m-1.22.7c2,3.46,4.42,6.5,6.75,8.5,2.8,2.41,5.56,3.38,7.27,2.39,1.76-1.02,2.34-4.11,1.59-7.87-.56-2.83-1.98-6.23-4.01-9.74-1.93-3.34-4.17-6.23-6.33-8.15-2.97-2.64-5.95-3.75-7.74-2.71-1.71.99-2.22,3.94-1.5,7.63.59,3.01,1.99,6.54,3.96,9.95h0"/>
</svg>